<svg width="167" height="40" viewBox="0 0 167 40" fill="none" xmlns="http://www.w3.org/2000/svg">
<g clip-path="url(#clip0_523_2552)">
<path d="M20.1783 0.134487C20.0316 0.205127 19.6783 0.395311 19.4012 0.563759C14.9673 3.26436 12.4948 6.704 11.7341 11.2521C11.5548 12.3062 11.495 13.3387 11.5276 14.6427C11.5928 17.0499 11.9134 18.6638 13.0763 22.4077C13.8424 24.8692 14.3586 27.2003 14.6303 29.401C14.8151 30.9062 14.8531 31.5474 14.8531 33.3949C14.8531 35.6825 14.7608 36.4541 14.2499 38.4864C14.0435 39.3177 14.0272 39.4971 14.1467 39.7253C14.4238 40.2632 15.1357 40.035 16.9723 38.8287C17.9884 38.1603 18.7818 37.5082 19.6892 36.6008C20.9879 35.3021 21.7649 34.2262 22.5148 32.6885C23.6396 30.3846 24.1286 28.0426 24.0471 25.38C23.9765 23.0598 23.6668 21.5057 22.4713 17.4466C21.5584 14.3494 21.2433 13.0017 20.9988 11.1814C20.7488 9.3285 20.7216 8.91013 20.7216 6.8235C20.7271 4.60108 20.7977 3.80231 21.1346 2.20477C21.4552 0.694169 21.4606 0.438781 21.1563 0.134487C20.977 -0.0448289 20.5532 -0.0448289 20.1783 0.134487Z" fill="#FF430A"/>
<path d="M6.67519 3.30788C5.94707 3.60131 4.30062 4.78044 3.39318 5.65529C1.18704 7.78537 0.105714 10.3121 0.00790584 13.5615C-0.0518662 15.5829 0.219825 17.2021 1.07837 19.9462C2.08906 23.1794 2.47486 25.3855 2.5292 28.2328C2.55637 29.4717 2.54006 29.8901 2.46942 30.4878C2.37705 31.2214 2.176 32.2375 2.02929 32.7374C1.89887 33.1721 1.92061 33.4492 2.09993 33.5851C2.38248 33.8133 2.82806 33.6503 4.01263 32.8733C6.45787 31.2757 8.03906 29.325 8.89219 26.8472C9.69637 24.4997 9.74531 22.0165 9.03894 19.104C8.94112 18.6856 8.64769 17.6314 8.39231 16.7566C7.58262 13.9962 7.37075 13.0724 7.16425 11.4749C6.84363 8.89931 6.90344 6.80724 7.35987 4.67177C7.57175 3.68281 7.50113 3.31331 7.08275 3.23724C6.99038 3.22094 6.8165 3.25354 6.67519 3.30788Z" fill="#FF430A"/>
<path d="M32.801 3.28602C32.2684 3.4762 30.9861 4.31844 30.1004 5.04657C26.7912 7.7852 25.4544 11.8117 26.2641 16.6043C26.4271 17.5552 26.6662 18.4789 27.1607 20.0819C28.0464 22.9401 28.4431 25.0865 28.5843 27.7545C28.6713 29.5042 28.5409 30.9116 28.1333 32.4873C27.9377 33.2535 27.9377 33.3839 28.117 33.5687C28.242 33.6882 28.2855 33.7045 28.5028 33.6719C28.9701 33.6121 30.3014 32.7916 31.3828 31.9059C33.9747 29.7868 35.4418 26.809 35.5668 23.3966C35.6374 21.4513 35.3712 19.9135 34.3714 16.5228C33.6704 14.1428 33.4476 13.219 33.252 11.7954C33.0618 10.4043 33.0129 9.5512 33.0455 8.00801C33.0727 6.49739 33.1596 5.68233 33.4041 4.64991C33.5617 4.00328 33.5563 3.58488 33.3987 3.40556C33.2411 3.23168 33.0564 3.19364 32.801 3.28602Z" fill="#FF430A"/>
</g>
<path d="M48.7386 12.7287V9.63636H64.9858V12.7287H58.6918V30H55.0327V12.7287H48.7386ZM75.2581 18.3366V21.2997H66.0905V18.3366H75.2581ZM78.5031 9.63636H83.0173L89.0627 24.392H89.3014L95.3468 9.63636H99.861V30H96.3212V16.0099H96.1323L90.5045 29.9403H87.8596L82.2317 15.9801H82.0428V30H78.5031V9.63636ZM109.681 30.2983C108.189 30.2983 106.897 29.9702 105.803 29.3139C104.709 28.6577 103.861 27.7396 103.258 26.5597C102.661 25.3797 102.363 24.0009 102.363 22.4233C102.363 20.8456 102.661 19.4635 103.258 18.277C103.861 17.0904 104.709 16.169 105.803 15.5128C106.897 14.8565 108.189 14.5284 109.681 14.5284C111.172 14.5284 112.465 14.8565 113.559 15.5128C114.652 16.169 115.498 17.0904 116.094 18.277C116.697 19.4635 116.999 20.8456 116.999 22.4233C116.999 24.0009 116.697 25.3797 116.094 26.5597C115.498 27.7396 114.652 28.6577 113.559 29.3139C112.465 29.9702 111.172 30.2983 109.681 30.2983ZM109.701 27.4148C110.509 27.4148 111.186 27.1927 111.729 26.7486C112.273 26.2978 112.677 25.6946 112.942 24.9389C113.214 24.1832 113.35 23.3414 113.35 22.4134C113.35 21.4787 113.214 20.6335 112.942 19.8778C112.677 19.1155 112.273 18.509 111.729 18.0582C111.186 17.6075 110.509 17.3821 109.701 17.3821C108.872 17.3821 108.183 17.6075 107.633 18.0582C107.089 18.509 106.681 19.1155 106.41 19.8778C106.144 20.6335 106.012 21.4787 106.012 22.4134C106.012 23.3414 106.144 24.1832 106.41 24.9389C106.681 25.6946 107.089 26.2978 107.633 26.7486C108.183 27.1927 108.872 27.4148 109.701 27.4148ZM131.594 9.07954L132.847 11.4062C132.403 11.7907 131.906 12.0691 131.356 12.2415C130.805 12.4138 130.159 12.5265 129.417 12.5795C128.681 12.6259 127.806 12.6591 126.792 12.679C125.651 12.7055 124.72 12.9209 123.998 13.3253C123.275 13.7296 122.722 14.3428 122.337 15.1648C121.953 15.9801 121.701 17.0208 121.581 18.2869H121.75C122.228 17.3523 122.897 16.6397 123.759 16.1491C124.621 15.6586 125.632 15.4134 126.792 15.4134C128.058 15.4134 129.175 15.6984 130.142 16.2685C131.117 16.8319 131.876 17.6506 132.419 18.7244C132.97 19.7983 133.245 21.0975 133.245 22.6222C133.245 24.1932 132.95 25.5554 132.36 26.7088C131.77 27.8556 130.931 28.7405 129.844 29.3636C128.764 29.9867 127.481 30.2983 125.996 30.2983C124.518 30.2983 123.232 29.9768 122.138 29.3338C121.051 28.6842 120.209 27.7263 119.613 26.4602C119.023 25.1875 118.728 23.6198 118.728 21.7571V20.3849C118.728 16.7921 119.397 14.1108 120.736 12.3409C122.075 10.571 124.061 9.66951 126.692 9.63636C127.474 9.62311 128.174 9.61979 128.79 9.62642C129.413 9.63305 129.957 9.60322 130.421 9.53693C130.885 9.47064 131.276 9.31818 131.594 9.07954ZM126.016 27.4148C126.752 27.4148 127.388 27.2259 127.925 26.848C128.462 26.4635 128.873 25.92 129.158 25.2173C129.45 24.5147 129.596 23.6828 129.596 22.7216C129.596 21.7737 129.45 20.9683 129.158 20.3054C128.866 19.6359 128.452 19.1255 127.915 18.7741C127.378 18.4228 126.739 18.2472 125.996 18.2472C125.439 18.2472 124.939 18.3466 124.495 18.5455C124.051 18.7443 123.673 19.036 123.361 19.4205C123.05 19.8049 122.811 20.2723 122.645 20.8224C122.48 21.3726 122.39 22.0057 122.377 22.7216C122.377 24.16 122.702 25.3035 123.351 26.152C124.001 26.9938 124.889 27.4148 126.016 27.4148ZM139.077 25.1278L145.192 14.7273H148.891V30H145.411V19.5895L139.316 30H135.607V14.7273H139.077V25.1278ZM158.55 30.2983C157.025 30.2983 155.716 29.9635 154.622 29.294C153.535 28.6245 152.696 27.6998 152.106 26.5199C151.523 25.3333 151.231 23.9678 151.231 22.4233C151.231 20.8722 151.53 19.5033 152.126 18.3168C152.723 17.1236 153.565 16.1955 154.652 15.5327C155.746 14.8632 157.038 14.5284 158.53 14.5284C159.769 14.5284 160.866 14.7571 161.821 15.2145C162.782 15.6652 163.548 16.3049 164.118 17.1335C164.688 17.9555 165.013 18.9167 165.092 20.017H161.652C161.513 19.2812 161.181 18.6681 160.658 18.1776C160.141 17.6804 159.448 17.4318 158.579 17.4318C157.844 17.4318 157.197 17.6307 156.641 18.0284C156.084 18.4195 155.65 18.983 155.338 19.7188C155.033 20.4545 154.881 21.3362 154.881 22.3636C154.881 23.4044 155.033 24.2992 155.338 25.0483C155.643 25.7907 156.07 26.3641 156.621 26.7685C157.177 27.1662 157.83 27.3651 158.579 27.3651C159.11 27.3651 159.584 27.2656 160.001 27.0668C160.426 26.8613 160.78 26.5663 161.065 26.1818C161.35 25.7973 161.546 25.33 161.652 24.7798H165.092C165.006 25.8603 164.688 26.8182 164.138 27.6534C163.588 28.482 162.838 29.1316 161.891 29.6023C160.943 30.0663 159.829 30.2983 158.55 30.2983Z" fill="#383838"/>
<defs>
<clipPath id="clip0_523_2552">
<rect width="35.625" height="40" fill="white"/>
</clipPath>
</defs>
</svg>
